<svg fill="none" height="146.909973" viewBox="0 0 200 146.91" width="200.000000"
    xmlns="http://www.w3.org/2000/svg">
    <desc>
        Created with Pixso.
    </desc>
    <defs>
        <clipPath id="clip39_10">
            <rect fill="white" fill-opacity="0" height="146.910004" id="author_logo"
                width="200.000000" />
        </clipPath>
    </defs>
    <g clip-path="url(#clip39_10)">
        <path d="M36.45 10.16C35.6 10.16 34.76 10.19 33.91 10.27C33.07 10.35 32.23 10.46 31.4 10.61C30.57 10.77 29.74 10.96 28.93 11.18C28.12 11.41 27.32 11.67 26.54 11.97C25.75 12.27 24.99 12.6 24.24 12.97C23.49 13.34 22.76 13.74 22.06 14.18C21.35 14.61 20.67 15.08 20.02 15.57C19.36 16.07 18.73 16.59 18.13 17.15C17.53 17.7 16.96 18.28 16.42 18.88C15.89 19.49 15.38 20.11 14.91 20.76C14.44 21.41 14 22.08 13.6 22.77C13.2 23.46 12.84 24.17 12.51 24.89C12.19 25.62 11.9 26.35 11.66 27.1C11.41 27.85 11.2 28.61 11.04 29.37C10.87 30.14 10.75 30.91 10.67 31.69C10.58 32.47 10.54 33.25 10.54 34.03L10.54 114.41C10.54 115.19 10.58 115.97 10.67 116.75C10.75 117.53 10.87 118.3 11.04 119.07C11.2 119.83 11.41 120.59 11.66 121.34C11.9 122.09 12.19 122.82 12.51 123.54C12.84 124.27 13.2 124.97 13.6 125.66C14 126.35 14.43 127.02 14.91 127.67C15.38 128.32 15.88 128.95 16.42 129.55C16.96 130.16 17.53 130.74 18.13 131.29C18.73 131.84 19.35 132.37 20.01 132.86C20.67 133.36 21.35 133.82 22.05 134.26C22.76 134.69 23.48 135.09 24.23 135.46C24.98 135.83 25.74 136.17 26.53 136.47C27.31 136.76 28.11 137.03 28.92 137.25C29.73 137.48 30.55 137.67 31.39 137.82C32.22 137.98 33.06 138.09 33.9 138.17C34.74 138.24 35.59 138.28 36.44 138.28L164.3 138.28C165.15 138.28 166 138.24 166.84 138.17C167.69 138.09 168.52 137.98 169.36 137.82C170.19 137.67 171.01 137.48 171.82 137.25C172.63 137.03 173.43 136.76 174.22 136.47C175 136.17 175.76 135.83 176.51 135.46C177.26 135.09 177.99 134.69 178.69 134.26C179.4 133.82 180.08 133.36 180.73 132.86C181.39 132.37 182.02 131.84 182.62 131.29C183.22 130.74 183.79 130.16 184.32 129.55C184.86 128.95 185.37 128.32 185.84 127.67C186.31 127.02 186.74 126.35 187.14 125.66C187.54 124.97 187.91 124.27 188.23 123.54C188.56 122.82 188.84 122.09 189.09 121.34C189.33 120.59 189.54 119.83 189.7 119.07C189.87 118.3 189.99 117.53 190.08 116.75C190.16 115.97 190.2 115.19 190.2 114.41L190.2 34.03C190.2 33.25 190.16 32.47 190.08 31.69C189.99 30.91 189.87 30.14 189.7 29.37C189.54 28.61 189.33 27.85 189.09 27.1C188.84 26.35 188.56 25.62 188.23 24.9C187.91 24.17 187.54 23.47 187.14 22.78C186.74 22.09 186.31 21.42 185.84 20.77C185.37 20.12 184.86 19.49 184.32 18.89C183.79 18.28 183.22 17.7 182.62 17.15C182.02 16.6 181.39 16.07 180.73 15.58C180.08 15.08 179.4 14.62 178.69 14.18C177.99 13.75 177.26 13.34 176.51 12.98C175.76 12.61 175 12.27 174.22 11.97C173.43 11.68 172.63 11.41 171.82 11.19C171.01 10.96 170.19 10.77 169.36 10.62C168.52 10.46 167.69 10.35 166.84 10.27C166 10.2 165.15 10.16 164.3 10.16L36.45 10.16ZM36.45 0.78L164.29 0.78C165.47 0.78 166.65 0.83 167.83 0.94C169 1.05 170.17 1.21 171.33 1.42C172.49 1.63 173.63 1.89 174.76 2.21C175.89 2.53 177.01 2.89 178.1 3.31C179.19 3.73 180.26 4.19 181.3 4.7C182.34 5.22 183.35 5.78 184.34 6.38C185.32 6.99 186.27 7.63 187.18 8.32C188.09 9.02 188.97 9.75 189.8 10.52C190.64 11.29 191.43 12.09 192.18 12.93C192.93 13.78 193.63 14.65 194.29 15.56C194.95 16.46 195.55 17.39 196.11 18.35C196.67 19.32 197.17 20.3 197.63 21.3C198.08 22.31 198.48 23.34 198.82 24.38C199.16 25.42 199.45 26.48 199.68 27.54C199.91 28.61 200.08 29.69 200.2 30.77C200.31 31.86 200.37 32.94 200.37 34.03L200.37 114.41C200.37 115.5 200.31 116.58 200.2 117.67C200.08 118.75 199.91 119.83 199.68 120.89C199.45 121.96 199.16 123.02 198.82 124.06C198.48 125.1 198.08 126.13 197.63 127.13C197.17 128.14 196.67 129.12 196.11 130.08C195.56 131.04 194.95 131.97 194.29 132.88C193.64 133.78 192.93 134.66 192.19 135.5C191.44 136.34 190.64 137.15 189.81 137.92C188.97 138.69 188.1 139.42 187.19 140.11C186.27 140.8 185.32 141.45 184.34 142.05C183.36 142.66 182.35 143.22 181.31 143.73C180.26 144.24 179.2 144.71 178.11 145.13C177.02 145.54 175.9 145.91 174.77 146.23C173.64 146.54 172.5 146.81 171.34 147.02C170.18 147.23 169.02 147.39 167.84 147.5C166.66 147.6 165.49 147.66 164.3 147.66L36.44 147.66C35.26 147.66 34.08 147.6 32.9 147.5C31.73 147.39 30.56 147.23 29.4 147.02C28.24 146.81 27.1 146.54 25.97 146.23C24.84 145.91 23.73 145.54 22.64 145.13C21.55 144.71 20.48 144.24 19.44 143.73C18.4 143.22 17.38 142.66 16.4 142.05C15.42 141.45 14.47 140.8 13.56 140.11C12.65 139.42 11.77 138.69 10.94 137.92C10.1 137.15 9.31 136.34 8.56 135.5C7.81 134.66 7.11 133.78 6.45 132.88C5.79 131.97 5.19 131.04 4.63 130.08C4.07 129.12 3.57 128.14 3.12 127.13C2.66 126.13 2.27 125.1 1.92 124.06C1.58 123.02 1.29 121.96 1.06 120.89C0.83 119.83 0.66 118.75 0.55 117.67C0.43 116.58 0.37 115.5 0.37 114.41L0.37 34.03C0.37 32.94 0.43 31.86 0.55 30.77C0.66 29.69 0.83 28.61 1.06 27.55C1.29 26.48 1.58 25.42 1.92 24.38C2.27 23.34 2.66 22.31 3.12 21.31C3.57 20.3 4.07 19.32 4.63 18.36C5.19 17.4 5.79 16.46 6.45 15.56C7.11 14.65 7.81 13.78 8.56 12.94C9.31 12.1 10.1 11.29 10.94 10.52C11.77 9.75 12.65 9.02 13.56 8.33C14.47 7.64 15.42 6.99 16.4 6.39C17.38 5.78 18.4 5.22 19.44 4.71C20.48 4.19 21.55 3.73 22.64 3.31C23.73 2.9 24.84 2.53 25.97 2.21C27.1 1.9 28.24 1.63 29.4 1.42C30.56 1.21 31.73 1.05 32.9 0.94C34.08 0.84 35.27 0.78 36.45 0.78ZM81.73 42.97C81.73 42.66 81.76 42.36 81.83 42.05C81.89 41.75 81.99 41.46 82.11 41.18C82.24 40.89 82.4 40.62 82.58 40.37C82.77 40.11 82.98 39.87 83.22 39.65C83.45 39.44 83.71 39.24 83.99 39.07C84.26 38.9 84.56 38.76 84.87 38.64C85.17 38.52 85.49 38.43 85.82 38.37C86.15 38.31 86.48 38.28 86.81 38.28C87.15 38.28 87.48 38.31 87.8 38.37C88.13 38.43 88.45 38.52 88.76 38.64C89.07 38.76 89.36 38.9 89.64 39.07C89.91 39.24 90.17 39.44 90.41 39.65C90.64 39.87 90.85 40.11 91.04 40.37C91.23 40.62 91.38 40.89 91.51 41.18C91.64 41.46 91.73 41.75 91.8 42.05C91.86 42.36 91.9 42.66 91.9 42.97L91.9 83.24C91.9 98.09 79.02 110.16 63.08 110.16C47.15 110.16 34.27 98.09 34.27 83.24L34.27 42.97C34.27 42.66 34.3 42.36 34.37 42.05C34.43 41.75 34.53 41.46 34.66 41.18C34.78 40.89 34.94 40.62 35.13 40.37C35.31 40.11 35.52 39.87 35.76 39.65C36 39.44 36.25 39.24 36.53 39.07C36.81 38.9 37.1 38.76 37.41 38.64C37.72 38.52 38.04 38.43 38.36 38.37C38.69 38.31 39.02 38.28 39.35 38.28C39.69 38.28 40.02 38.31 40.35 38.37C40.67 38.43 40.99 38.52 41.3 38.64C41.61 38.76 41.9 38.9 42.18 39.07C42.46 39.24 42.71 39.44 42.95 39.65C43.19 39.87 43.4 40.11 43.58 40.37C43.77 40.62 43.92 40.89 44.05 41.18C44.18 41.46 44.28 41.75 44.34 42.05C44.41 42.36 44.44 42.66 44.44 42.97L44.44 83.24C44.44 92.94 52.81 100.78 63.08 100.78C73.36 100.78 81.73 92.94 81.73 83.24L81.73 42.97ZM147.5 73.01C156.21 73.01 163.08 67.23 163.08 60.33C163.08 53.43 156.21 47.66 147.5 47.66L119.02 47.66L119.02 73.01L147.5 73.01ZM119.02 105.47C119.02 105.78 118.98 106.08 118.92 106.38C118.85 106.69 118.76 106.98 118.63 107.26C118.5 107.55 118.34 107.82 118.16 108.07C117.97 108.33 117.76 108.57 117.53 108.78C117.29 109 117.03 109.2 116.76 109.37C116.48 109.54 116.19 109.68 115.88 109.8C115.57 109.92 115.25 110.01 114.92 110.07C114.6 110.13 114.27 110.16 113.93 110.16C113.6 110.16 113.27 110.13 112.94 110.07C112.61 110.01 112.29 109.92 111.99 109.8C111.68 109.68 111.38 109.54 111.11 109.37C110.83 109.2 110.57 109 110.34 108.78C110.1 108.57 109.89 108.33 109.7 108.07C109.52 107.82 109.36 107.55 109.23 107.26C109.11 106.98 109.01 106.69 108.94 106.38C108.88 106.08 108.85 105.78 108.85 105.47L108.85 42.97C108.85 40.38 111.12 38.28 113.93 38.28L147.5 38.28C161.63 38.28 173.25 48.06 173.25 60.33C173.25 72.61 161.63 82.38 147.5 82.38L119.02 82.38L119.02 105.47Z"
            fill="#999999"
            fill-opacity="1.000000" fill-rule="nonzero" id="path" />
    </g>
</svg>
