<svg fill="none" height="146.910004" viewBox="0 0 200 146.91" width="200.000000"
    xmlns="http://www.w3.org/2000/svg">
    <desc>
        Created with Pixso.
    </desc>
    <defs>
        <clipPath id="clip39_12">
            <rect fill="white" fill-opacity="0" height="146.910004" id="video_player"
                width="200.000000" />
        </clipPath>
    </defs>
    <g clip-path="url(#clip39_12)">
        <path d="M36.08 9.37C35.23 9.37 34.38 9.41 33.54 9.49C32.69 9.56 31.85 9.68 31.02 9.83C30.19 9.98 29.37 10.17 28.56 10.4C27.74 10.62 26.95 10.89 26.16 11.19C25.38 11.49 24.61 11.82 23.86 12.19C23.11 12.56 22.39 12.96 21.68 13.39C20.98 13.83 20.29 14.29 19.64 14.79C18.98 15.28 18.35 15.81 17.75 16.36C17.15 16.92 16.59 17.49 16.05 18.1C15.51 18.7 15 19.33 14.53 19.98C14.06 20.63 13.62 21.3 13.22 21.99C12.82 22.68 12.46 23.39 12.14 24.11C11.81 24.83 11.53 25.57 11.28 26.32C11.03 27.07 10.83 27.83 10.66 28.59C10.5 29.36 10.37 30.13 10.29 30.91C10.21 31.69 10.16 32.47 10.16 33.25L10.16 113.65C10.16 114.43 10.21 115.21 10.29 115.99C10.37 116.77 10.5 117.54 10.66 118.31C10.83 119.07 11.03 119.83 11.28 120.58C11.53 121.33 11.81 122.06 12.14 122.79C12.46 123.51 12.82 124.22 13.22 124.91C13.62 125.6 14.06 126.27 14.53 126.92C15 127.57 15.51 128.19 16.04 128.8C16.58 129.4 17.15 129.98 17.75 130.53C18.35 131.09 18.98 131.61 19.63 132.11C20.29 132.6 20.97 133.07 21.67 133.5C22.38 133.94 23.11 134.34 23.85 134.71C24.6 135.08 25.37 135.41 26.15 135.71C26.94 136.01 27.73 136.27 28.54 136.5C29.36 136.73 30.18 136.92 31.01 137.07C31.84 137.22 32.68 137.34 33.52 137.41C34.37 137.49 35.21 137.53 36.06 137.53L163.93 137.53C164.78 137.53 165.62 137.49 166.47 137.41C167.31 137.34 168.15 137.22 168.98 137.07C169.81 136.92 170.63 136.73 171.45 136.5C172.26 136.27 173.05 136.01 173.84 135.71C174.62 135.41 175.39 135.08 176.14 134.71C176.88 134.34 177.61 133.94 178.32 133.5C179.02 133.07 179.7 132.6 180.36 132.11C181.01 131.61 181.64 131.09 182.24 130.53C182.84 129.98 183.41 129.4 183.95 128.8C184.49 128.19 184.99 127.57 185.46 126.92C185.93 126.27 186.37 125.6 186.77 124.91C187.17 124.22 187.53 123.51 187.85 122.79C188.18 122.06 188.46 121.33 188.71 120.58C188.96 119.83 189.16 119.07 189.33 118.31C189.49 117.54 189.62 116.77 189.7 115.99C189.78 115.21 189.83 114.43 189.83 113.65L189.83 33.25C189.83 32.47 189.78 31.69 189.7 30.91C189.62 30.13 189.49 29.36 189.33 28.59C189.16 27.83 188.96 27.07 188.71 26.32C188.46 25.57 188.18 24.84 187.85 24.11C187.53 23.39 187.17 22.69 186.77 22C186.37 21.31 185.93 20.64 185.46 19.99C184.99 19.34 184.49 18.71 183.95 18.1C183.41 17.5 182.84 16.92 182.24 16.37C181.64 15.81 181.01 15.29 180.36 14.79C179.7 14.3 179.02 13.83 178.32 13.4C177.61 12.96 176.88 12.56 176.14 12.19C175.39 11.82 174.62 11.49 173.84 11.19C173.05 10.89 172.26 10.63 171.45 10.4C170.63 10.17 169.81 9.98 168.98 9.83C168.15 9.68 167.31 9.56 166.47 9.49C165.62 9.41 164.78 9.37 163.93 9.37L36.08 9.37ZM36.08 0L163.91 0C165.1 -0.01 166.27 0.05 167.45 0.15C168.63 0.26 169.79 0.42 170.95 0.63C172.11 0.84 173.26 1.11 174.39 1.42C175.52 1.74 176.63 2.11 177.72 2.52C178.81 2.94 179.88 3.4 180.92 3.92C181.96 4.43 182.98 4.99 183.96 5.6C184.94 6.2 185.89 6.85 186.8 7.54C187.72 8.23 188.59 8.96 189.43 9.73C190.26 10.5 191.06 11.31 191.8 12.15C192.55 12.99 193.26 13.87 193.91 14.77C194.57 15.68 195.18 16.61 195.73 17.57C196.29 18.53 196.8 19.52 197.25 20.52C197.7 21.53 198.1 22.55 198.44 23.6C198.78 24.64 199.07 25.69 199.3 26.76C199.53 27.83 199.71 28.91 199.82 29.99C199.94 31.08 200 32.16 200 33.25L200 113.65C200 114.74 199.94 115.82 199.82 116.91C199.71 117.99 199.53 119.07 199.3 120.14C199.07 121.2 198.79 122.26 198.44 123.3C198.1 124.34 197.7 125.37 197.25 126.38C196.8 127.38 196.29 128.37 195.74 129.33C195.18 130.29 194.57 131.22 193.92 132.13C193.26 133.03 192.56 133.9 191.81 134.75C191.06 135.59 190.27 136.39 189.43 137.17C188.6 137.94 187.72 138.67 186.81 139.36C185.9 140.05 184.95 140.7 183.97 141.3C182.98 141.91 181.97 142.47 180.93 142.98C179.89 143.49 178.82 143.96 177.73 144.37C176.64 144.79 175.53 145.16 174.4 145.47C173.27 145.79 172.12 146.05 170.96 146.27C169.81 146.48 168.64 146.64 167.46 146.75C166.29 146.85 165.11 146.91 163.93 146.91L36.06 146.91C34.88 146.91 33.7 146.85 32.53 146.75C31.35 146.64 30.18 146.48 29.03 146.27C27.87 146.05 26.72 145.79 25.59 145.47C24.46 145.16 23.35 144.79 22.26 144.37C21.17 143.96 20.1 143.49 19.06 142.98C18.02 142.47 17.01 141.91 16.02 141.3C15.04 140.7 14.09 140.05 13.18 139.36C12.27 138.67 11.39 137.94 10.56 137.17C9.72 136.39 8.93 135.59 8.18 134.75C7.43 133.9 6.73 133.03 6.07 132.13C5.42 131.22 4.81 130.29 4.25 129.33C3.7 128.37 3.19 127.38 2.74 126.38C2.29 125.37 1.89 124.34 1.55 123.3C1.21 122.26 0.92 121.2 0.69 120.14C0.46 119.07 0.28 117.99 0.17 116.91C0.05 115.82 0 114.74 0 113.65L0 33.25C0 32.16 0.05 31.08 0.17 29.99C0.28 28.91 0.46 27.83 0.69 26.76C0.92 25.7 1.21 24.64 1.55 23.6C1.89 22.56 2.29 21.53 2.74 20.53C3.19 19.52 3.7 18.54 4.25 17.58C4.81 16.61 5.42 15.68 6.07 14.78C6.73 13.87 7.43 13 8.18 12.15C8.93 11.31 9.72 10.51 10.56 9.74C11.39 8.97 12.27 8.24 13.18 7.54C14.09 6.85 15.04 6.21 16.02 5.6C17.01 4.99 18.02 4.44 19.06 3.92C20.1 3.41 21.17 2.94 22.26 2.53C23.35 2.11 24.46 1.74 25.59 1.43C26.72 1.11 27.87 0.85 29.03 0.63C30.18 0.42 31.35 0.26 32.53 0.16C33.7 0.05 34.9 0 36.08 0ZM127.02 70.6L90.86 50.51C88.17 49.01 84.74 50.71 84.74 53.31L84.74 93.48C84.74 96.07 88.17 97.77 90.86 96.27L127.02 76.2C127.57 75.92 128 75.53 128.32 75.03C128.64 74.53 128.8 73.99 128.8 73.41C128.8 72.83 128.64 72.29 128.32 71.79C128 71.29 127.57 70.88 127.02 70.6ZM96.1 104.31C86.75 109.5 74.57 103.5 74.57 93.48L74.57 53.31C74.57 43.28 86.76 37.28 96.12 42.48L132.27 62.56C141.22 67.54 141.22 79.25 132.27 84.22L96.1 104.31Z"
            fill="#999999"
            fill-opacity="1.000000" fill-rule="nonzero" id="path" />
    </g>
</svg>
